<svg width="39" height="67" viewBox="0 0 39 67" fill="none" xmlns="http://www.w3.org/2000/svg">
<path d="M13.0229 37.7064C13.0229 38.5944 12.8749 39.4084 12.5789 40.1485C12.2829 40.8885 11.7648 41.5546 11.1728 42.1466C10.5808 42.7386 9.76672 43.1826 8.87867 43.4787C7.99063 43.7747 6.88056 43.9967 5.6965 43.9967H2.07031V31.416H5.6965C6.88056 31.416 7.91662 31.564 8.87867 31.934C9.76672 32.2301 10.5808 32.6741 11.1728 33.2661C11.7648 33.8581 12.2829 34.5242 12.5789 35.2642C12.8749 36.0043 13.0229 36.8183 13.0229 37.7064ZM11.0248 37.7804C11.0248 37.0403 10.9508 36.3743 10.7288 35.7822C10.5808 35.1902 10.2847 34.7462 9.98873 34.3022C9.69272 33.8581 9.32269 33.5621 8.95267 33.2661C8.58265 32.9701 8.13863 32.8221 7.69461 32.6741C7.25058 32.5261 6.80656 32.4521 6.28853 32.3781C5.77051 32.3041 5.32648 32.3041 4.88245 32.3041H3.8464V43.2566H4.88245C5.32648 43.2566 5.77051 43.2566 6.28853 43.1826C6.80656 43.1086 7.25058 43.0346 7.69461 42.8866C8.13863 42.7386 8.58265 42.5166 8.95267 42.2946C9.32269 41.9986 9.69272 41.7026 9.98873 41.3325C10.2847 40.9625 10.5068 40.4445 10.7288 39.8525C10.9508 39.1864 11.0248 38.5204 11.0248 37.7804Z" fill="#1A1A1A"/>
<path d="M16.9438 44.0709H15.0938V31.4902H16.9438V44.0709Z" fill="#1A1A1A"/>
<path d="M7.99243 49.1758V49.9898H4.95826V61.7565H3.10816V49.9898H0V49.1758H7.99243Z" fill="#1A1A1A"/>
<path d="M18.9439 61.8305H17.0198L16.3538 60.2024H9.39741L8.73137 61.8305H7.69531L12.2836 50.8039L11.6175 49.1758H13.6156L18.9439 61.8305ZM9.76742 59.3883H15.9838L12.8756 52.0619L9.76742 59.3883Z" fill="#1A1A1A"/>
<path d="M1.92188 66.4195H38.4058V27.1974H21.3849V1H2.3659V27.4934" stroke="#1A1A1A" stroke-miterlimit="10"/>
</svg>
